{
  "accessors": [
    {
      "bufferView": 2,
      "componentType": 5126,
      "count": 2892,
      "max": [
        1.5272281169891357,
        1.5773569345474243,
        1.811979055404663
      ],
      "min": [
        -1.7212331295013428,
        -1.4303306341171265,
        -2.255733013153076
      ],
      "type": "VEC3"
    },
    {
      "bufferView": 2,
      "byteOffset": 34704,
      "componentType": 5126,
      "count": 2892,
      "max": [
        0.9965891242027283,
        0.9992283582687378,
        0.999993085861206
      ],
      "min": [
        -0.9965891242027283,
        -0.9999027252197266,
        -0.9999976754188538
      ],
      "type": "VEC3"
    },
    {
      "bufferView": 3,
      "componentType": 5126,
      "count": 2892,
      "max": [
        0.9999908208847046,
        0.985867977142334,
        0.9999027252197266,
        1.0
      ],
      "min": [
        -0.9999908804893494,
        -0.9988859295845032,
        -0.9998390078544617,
        -1.0
      ],
      "type": "VEC4"
    },
    {
      "bufferView": 1,
      "componentType": 5126,
      "count": 2892,
      "max": [
        3.981888771057129,
        0.9945480823516846
      ],
      "min": [
        2.0047860145568848,
        0.0031826505437493324
      ],
      "type": "VEC2"
    },
    {
      "bufferView": 0,
      "componentType": 5125,
      "count": 11745,
      "type": "SCALAR"
    }
  ],
  "asset": {
    "extras": {
      "author": "Maria Kokova (https://sketchfab.com/tophana)",
      "license": "CC-BY-4.0 (http://creativecommons.org/licenses/by/4.0/)",
      "source": "https://sketchfab.com/3d-models/evil-bird-mask-0095eb405ac843c4a41ce70ac9a243e8",
      "title": "Evil Bird Mask"
    },
    "generator": "Sketchfab-12.78.0",
    "version": "2.0"
  },
  "bufferViews": [
    {
      "buffer": 0,
      "byteLength": 46980,
      "name": "floatBufferViews",
      "target": 34963
    },
    {
      "buffer": 0,
      "byteLength": 23136,
      "byteOffset": 46980,
      "byteStride": 8,
      "name": "floatBufferViews",
      "target": 34962
    },
    {
      "buffer": 0,
      "byteLength": 69408,
      "byteOffset": 70116,
      "byteStride": 12,
      "name": "floatBufferViews",
      "target": 34962
    },
    {
      "buffer": 0,
      "byteLength": 46272,
      "byteOffset": 139524,
      "byteStride": 16,
      "name": "floatBufferViews",
      "target": 34962
    }
  ],
  "buffers": [
    {
      "byteLength": 185796,
      "uri": "scene.bin"
    }
  ],
  "images": [
    {
      "uri": "textures/T_Mask_baseColor.png"
    },
    {
      "uri": "textures/T_Mask_metallicRoughness.png"
    },
    {
      "uri": "textures/T_Mask_emissive.jpeg"
    },
    {
      "uri": "textures/T_Mask_normal.png"
    }
  ],
  "materials": [
    {
      "alphaMode": "BLEND",
      "doubleSided": true,
      "emissiveFactor": [
        1.0,
        1.0,
        1.0
      ],
      "emissiveTexture": {
        "index": 2
      },
      "name": "T_Mask",
      "normalTexture": {
        "index": 3
      },
      "occlusionTexture": {
        "index": 1
      },
      "pbrMetallicRoughness": {
        "baseColorTexture": {
          "index": 0
        },
        "metallicFactor": 0.0,
        "metallicRoughnessTexture": {
          "index": 1
        }
      }
    }
  ],
  "meshes": [
    {
      "name": "SK_BirdMask_T_Mask_0",
      "primitives": [
        {
          "attributes": {
            "NORMAL": 1,
            "POSITION": 0,
            "TANGENT": 2,
            "TEXCOORD_0": 3
          },
          "indices": 4,
          "material": 0,
          "mode": 4
        }
      ]
    }
  ],
  "nodes": [
    {
      "children": [
        1
      ],
      "matrix": [
        1.0,
        0.0,
        0.0,
        0.0,
        0.0,
        2.220446049250313e-16,
        -1.0,
        0.0,
        0.0,
        1.0,
        2.220446049250313e-16,
        0.0,
        0.0,
        0.0,
        0.0,
        1.0
      ],
      "name": "Sketchfab_model"
    },
    {
      "children": [
        2
      ],
      "matrix": [
        0.10000000149011612,
        0.0,
        0.0,
        0.0,
        0.0,
        0.0,
        0.10000000149011612,
        0.0,
        0.0,
        -0.10000000149011612,
        0.0,
        0.0,
        0.0,
        0.0,
        0.0,
        1.0
      ],
      "name": "309c7885cafe450d825f0a2c0158d5cb.fbx"
    },
    {
      "children": [
        3
      ],
      "name": "RootNode"
    },
    {
      "children": [
        4
      ],
      "matrix": [
        0.10000000149011612,
        0.0,
        0.0,
        0.0,
        0.0,
        -1.6292068181953874e-08,
        0.1000000014901148,
        0.0,
        0.0,
        -0.1000000014901148,
        -1.6292068181953874e-08,
        0.0,
        0.0,
        0.0,
        0.0,
        1.0
      ],
      "name": "SK_BirdMask"
    },
    {
      "mesh": 0,
      "name": "SK_BirdMask_T_Mask_0"
    }
  ],
  "samplers": [
    {
      "magFilter": 9729,
      "minFilter": 9987,
      "wrapS": 10497,
      "wrapT": 10497
    }
  ],
  "scene": 0,
  "scenes": [
    {
      "name": "Sketchfab_Scene",
      "nodes": [
        0
      ]
    }
  ],
  "textures": [
    {
      "sampler": 0,
      "source": 0
    },
    {
      "sampler": 0,
      "source": 1
    },
    {
      "sampler": 0,
      "source": 2
    },
    {
      "sampler": 0,
      "source": 3
    }
  ]
}
